Coordinates
version=1
nRows=11
nColumns=46
inDegrees=yes

Units are S.I. units (second, meters, Newtons, ...)
Angles are in degrees.

endheader
time	pelvis_tilt	pelvis_list	pelvis_rotation	pelvis_tx	pelvis_ty	pelvis_tz	bb_angle	bb_tx	bb_ty	bb_tz	hip_flexion_r	hip_adduction_r	hip_rotation_r	knee_angle_r	knee_angle_r_beta	ankle_angle_r	subtalar_angle_r	mtp_angle_r	crank_angle_r	hip_flexion_l	hip_adduction_l	hip_rotation_l	knee_angle_l	knee_angle_l_beta	ankle_angle_l	subtalar_angle_l	mtp_angle_l	crank_angle_l	lumbar_extension	lumbar_bending	lumbar_rotation	arm_flex_r	arm_add_r	arm_rot_r	elbow_flex_r	pro_sup_r	wrist_flex_r	wrist_dev_r	arm_flex_l	arm_add_l	arm_rot_l	elbow_flex_l	pro_sup_l	wrist_flex_l	wrist_dev_l
      5.00000000	    -15.64206181	      2.61539226	      8.53800518	      0.31060528	      1.24814709	     -0.24597496	      0.00000000	      0.50000000	      0.00000000	      0.25000000	     29.63604291	    -13.30842022	    -10.28617334	     44.56805057	      0.77785922	    -20.08442902	     -1.81310358	      0.00000000	      0.00000000	     69.55324574	     -2.93042035	     -3.17904456	     86.63298820	      1.51203088	     14.78031264	      6.48941048	      0.00000000	      0.00000000	    -61.51575564	     -5.36525116	      0.11429807	     70.17941645	    -17.38714552	     25.93392868	     30.19479581	     41.07995713	      0.00000000	      0.00000000	     83.07310585	      6.29132487	     52.48924790	     21.71531890	     39.36046254	      0.00000000	      0.00000000
      5.00500000	    -15.76397330	      2.05754897	      8.38330294	      0.30989479	      1.24934939	     -0.24579851	      0.00000000	      0.50000000	      0.00000000	      0.25000000	     31.01889931	    -12.90809691	     -9.80592487	     47.12548495	      0.82249487	    -20.22261860	     -2.27979002	      0.00000000	      0.00000000	     68.37241759	     -3.16235587	     -3.19895790	     84.01425358	      1.46632534	     15.49079082	      4.99470987	      0.00000000	      0.00000000	    -61.43611468	     -5.29908524	      0.68794631	     70.21324614	    -17.63147724	     25.95579548	     30.22633545	     41.09747978	      0.00000000	      0.00000000	     82.99382765	      6.25838265	     52.07454389	     22.21793188	     39.30444573	      0.00000000	      0.00000000
      5.01000000	    -15.75961071	      1.35985532	      8.30856965	      0.30922119	      1.25033056	     -0.24588072	      0.00000000	      0.50000000	      0.00000000	      0.25000000	     32.24197563	    -12.43195329	     -9.52430227	     49.61056632	      0.86586773	    -20.41983293	     -2.54722305	      0.00000000	      0.00000000	     67.08075344	     -3.40193755	     -3.03530824	     81.37904270	      1.42033224	     16.05022924	      4.11472278	      0.00000000	      0.00000000	    -61.45594410	     -4.99235590	      1.32239395	     70.39687306	    -17.82648247	     25.99572495	     30.24735571	     41.10850706	      0.00000000	      0.00000000	     83.03299716	      6.23400650	     51.82586982	     22.46657347	     39.26729259	      0.00000000	      0.00000000
      5.01500000	    -15.76460124	      0.61990904	      8.23208339	      0.30875354	      1.25090774	     -0.24611966	      0.00000000	      0.50000000	      0.00000000	      0.25000000	     33.47149243	    -11.95157504	     -9.36436994	     52.04201245	      0.90830447	    -20.61100356	     -2.71569132	      0.00000000	      0.00000000	     65.76252222	     -3.70461708	     -2.88279405	     78.70890004	      1.37372946	     16.48690677	      3.47894130	      0.00000000	      0.00000000	    -61.36931763	     -4.63351110	      1.98019208	     70.53239674	    -18.00239890	     26.08484081	     30.27710089	     41.12800554	      0.00000000	      0.00000000	     82.97545175	      6.20841186	     51.63821227	     22.63914004	     39.23891752	      0.00000000	      0.00000000
      5.02000000	    -15.91132963	      0.00287299	      8.14938874	      0.30824248	      1.25101970	     -0.24609407	      0.00000000	      0.50000000	      0.00000000	      0.25000000	     34.90972341	    -11.59177889	     -9.06157008	     54.50474634	      0.95128728	    -20.69782044	     -2.62489851	      0.00000000	      0.00000000	     64.51849056	     -3.94373565	     -2.87337308	     75.94717980	      1.32552835	     16.60222023	      2.55599276	      0.00000000	      0.00000000	    -61.18157276	     -4.43238213	      2.50989072	     70.56167058	    -18.41828460	     26.71677522	     30.48455161	     41.27016906	      0.00000000	      0.00000000	     82.85154372	      6.22211326	     51.04179521	     23.02760306	     39.11002680	      0.00000000	      0.00000000
      5.02500000	    -15.86543712	     -0.71985013	      8.16441573	      0.30782217	      1.25100783	     -0.24623946	      0.00000000	      0.50000000	      0.00000000	      0.25000000	     36.09252576	    -11.21982262	     -9.09098970	     56.91633220	      0.99337740	    -20.82117884	     -2.74846850	      0.00000000	      0.00000000	     63.12644893	     -4.25733850	     -2.76276198	     73.24572577	      1.27837908	     16.68741500	      2.13325705	      0.00000000	      0.00000000	    -61.15971381	     -3.98393812	      3.09206541	     70.80445607	    -18.63729190	     26.88809656	     30.50095145	     41.29786587	      0.00000000	      0.00000000	     82.90304618	      6.21523973	     50.91063151	     23.13795288	     39.08341525	      0.00000000	      0.00000000
      5.03000000	    -15.95879531	     -1.39776812	      8.09226071	      0.30757408	      1.25049921	     -0.24665677	      0.00000000	      0.50000000	      0.00000000	      0.25000000	     37.45082246	    -10.93372393	     -9.05552095	     59.31391587	      1.03522312	    -20.89494042	     -2.48152542	      0.00000000	      0.00000000	     61.85672178	     -4.58199955	     -2.69411098	     70.56424663	      1.23157844	     16.47293568	      1.58984152	      0.00000000	      0.00000000	    -60.92855945	     -3.67534923	      3.65817760	     70.82542253	    -18.89767657	     27.31407897	     30.46174063	     41.36012622	      0.00000000	      0.00000000	     82.87866712	      6.21074344	     50.77523007	     23.32836850	     39.06055525	      0.00000000	      0.00000000
      5.03500000	    -15.87849651	     -2.11947800	      8.26104842	      0.30724880	      1.24991982	     -0.24672804	      0.00000000	      0.50000000	      0.00000000	      0.25000000	     38.55767784	    -10.68788940	     -9.31351563	     61.71353537	      1.07710439	    -20.65825137	     -2.45509741	      0.00000000	      0.00000000	     60.48987754	     -4.84738249	     -2.47022818	     67.93576144	      1.18570272	     16.21337620	      1.43228093	      0.00000000	      0.00000000	    -60.88034359	     -3.11392710	      4.13134087	     71.00022188	    -19.07925455	     27.78219572	     30.49128440	     41.43713437	      0.00000000	      0.00000000	     83.01954256	      6.04190101	     50.59738692	     23.33113538	     39.00263541	      0.00000000	      0.00000000
      5.04000000	    -15.66398589	     -3.16044643	      8.28495633	      0.30727083	      1.24900241	     -0.24674000	      0.00000000	      0.50000000	      0.00000000	      0.25000000	     39.50384636	    -10.10172213	     -9.78402830	     64.00032708	      1.11701643	    -20.64084050	     -2.40319298	      0.00000000	      0.00000000	     59.15431883	     -5.57023578	     -2.10711979	     65.54609629	      1.14399519	     15.96758284	      1.58657066	      0.00000000	      0.00000000	    -60.84091067	     -2.48467148	      4.79806608	     70.98810343	    -18.92719917	     27.92204094	     30.52687374	     41.46331389	      0.00000000	      0.00000000	     83.00772676	      5.90315245	     50.55769976	     23.27255677	     38.98400304	      0.00000000	      0.00000000
      5.04500000	    -15.82479398	     -3.47871939	      8.24044864	      0.30702216	      1.24749211	     -0.24757380	      0.00000000	      0.50000000	      0.00000000	      0.25000000	     41.04678004	    -10.34560312	     -9.67975903	     66.66264453	      1.16348264	    -19.71668247	     -1.78038000	      0.00000000	      0.00000000	     57.87865966	     -5.63368012	     -2.21774613	     62.90742481	      1.09794169	     15.16820973	      1.31509506	      0.00000000	      0.00000000	    -60.59281709	     -2.19517746	      4.91796135	     72.17124623	    -20.26806704	     34.26204438	     29.52063678	     42.26675994	      0.00000000	      0.00000000	     82.91667484	      5.98026137	     50.15101834	     23.21046122	     38.62478161	      0.00000000	      0.00000000
      5.05000000	    -15.79587513	     -4.21807862	      8.40215654	      0.30723445	      1.24584019	     -0.24786104	      0.00000000	      0.50000000	      0.00000000	      0.25000000	     42.17913084	    -10.25189576	    -10.18088169	     69.09930197	      1.20601033	    -19.11819719	     -1.74034379	      0.00000000	      0.00000000	     56.66558798	     -6.04399269	     -1.91947421	     60.53669569	      1.05656466	     14.48994868	      1.83767866	      0.00000000	      0.00000000	    -60.42183980	     -1.59117677	      5.34235431	     72.25923500	    -20.26712434	     34.37191409	     29.51022429	     42.27905583	      0.00000000	      0.00000000	     82.76426515	      5.96336815	     50.18632998	     23.21660805	     38.62094597	      0.00000000	      0.00000000
